<svg width="300" height="300" viewBox="0 0 300 300" fill="none" xmlns="http://www.w3.org/2000/svg">
<circle cx="165" cy="152" r="36.5" stroke="white" stroke-width="3"/>
<path d="M203.171 133.204L173.577 81.3301C172.076 78.6986 168.064 80.505 169.039 83.3733L187.58 137.937L168.156 127.02C165.646 125.61 163.133 128.86 165.13 130.933L181.688 148.133L150.855 146.796C147.979 146.671 147.206 150.706 149.924 151.654L177.889 161.405L149.958 183.399C147.621 185.239 149.878 188.892 152.57 187.625L184.298 172.694L171.109 226.685C170.404 229.572 174.427 231.059 175.769 228.406L203.231 174.109C203.408 173.759 203.5 173.373 203.5 172.981V134.443C203.5 134.009 203.387 133.582 203.171 133.204L201.869 133.948L203.171 133.204Z" stroke="white" stroke-width="3"/>
<path fill-rule="evenodd" clip-rule="evenodd" d="M200 253C200 253.552 200.448 254 201 254C201.552 254 202 253.552 202 253V51C202 51 202 51 202 51C202 50.4477 201.552 50 201 50C200.448 50 200 50.4477 200 51V253ZM205 51V253C205 255.209 203.209 257 201 257C198.791 257 197 255.209 197 253V51C197 48.7908 198.791 47 201 47C203.209 47 205 48.7909 205 51Z" fill="white"/>
<rect x="200" y="47" width="72" height="210" rx="2" fill="#F9F9FA"/>
<circle cx="165" cy="152" r="34" fill="#CBEEFF" stroke="#079FF0" stroke-width="2"/>
<circle cx="159.5" cy="151.5" r="27.5" fill="#F9F9FA"/>
<path d="M200 51C200 50.4477 200.448 50 201 50V50C201.552 50 202 50.4477 202 51V253C202 253.552 201.552 254 201 254V254C200.448 254 200 253.552 200 253V51Z" fill="#079FF0"/>
<path d="M171.406 82.5689L201 134.443L201 172.981L173.538 227.278L186.975 172.271C187.374 170.637 185.702 169.271 184.18 169.986L151.505 185.363L180.152 162.805C181.393 161.828 181.065 159.865 179.573 159.345L150.747 149.294L182.829 150.685C184.632 150.763 185.608 148.601 184.356 147.3L166.931 129.199L187.494 140.756C189.093 141.655 190.957 140.106 190.367 138.369L171.406 82.5689Z" fill="#CBEEFF" stroke="#079FF0" stroke-width="2"/>
<path d="M194.543 134.407L199.682 139.203C199.885 139.393 200 139.657 200 139.935V168.102C200 168.357 199.902 168.604 199.726 168.789L193.18 175.699C192.507 176.409 191.321 175.832 191.464 174.865L192.8 165.85C192.899 165.181 192.32 164.609 191.653 164.716L183.388 166.038C182.446 166.189 181.848 165.062 182.5 164.367L187.111 159.448C187.56 158.969 187.434 158.195 186.856 157.884L183.438 156.044C182.682 155.637 182.757 154.529 183.561 154.227L188.598 152.338C189.101 152.149 189.365 151.596 189.195 151.086L187.682 146.545C187.413 145.738 188.211 144.985 189.002 145.301L192.911 146.864C193.622 147.149 194.375 146.562 194.274 145.804L192.869 135.27C192.745 134.339 193.856 133.766 194.543 134.407Z" fill="#F9F9FA"/>
<path d="M39 124H90.5M58 145H96M88.5 134H121M43.5 179H125M43 161.5H87.5M94.5 172H110.5M101 156.5H116" stroke="#079FF0" stroke-width="2" stroke-linecap="round"/>
<path d="M39 121.5C37.6193 121.5 36.5 122.619 36.5 124C36.5 125.381 37.6193 126.5 39 126.5H90.5C91.8807 126.5 93 125.381 93 124C93 122.619 91.8807 121.5 90.5 121.5H39ZM88.5 131.5C87.1193 131.5 86 132.619 86 134C86 135.381 87.1193 136.5 88.5 136.5H121C122.381 136.5 123.5 135.381 123.5 134C123.5 132.619 122.381 131.5 121 131.5H88.5ZM58 142.5C56.6193 142.5 55.5 143.619 55.5 145C55.5 146.381 56.6193 147.5 58 147.5H96C97.3807 147.5 98.5 146.381 98.5 145C98.5 143.619 97.3807 142.5 96 142.5H58ZM101 154C99.6193 154 98.5 155.119 98.5 156.5C98.5 157.881 99.6193 159 101 159H116C117.381 159 118.5 157.881 118.5 156.5C118.5 155.119 117.381 154 116 154H101ZM43 159C41.6193 159 40.5 160.119 40.5 161.5C40.5 162.881 41.6193 164 43 164H87.5C88.8807 164 90 162.881 90 161.5C90 160.119 88.8807 159 87.5 159H43ZM94.5 169.5C93.1193 169.5 92 170.619 92 172C92 173.381 93.1193 174.5 94.5 174.5H110.5C111.881 174.5 113 173.381 113 172C113 170.619 111.881 169.5 110.5 169.5H94.5ZM43.5 176.5C42.1193 176.5 41 177.619 41 179C41 180.381 42.1193 181.5 43.5 181.5H125C126.381 181.5 127.5 180.381 127.5 179C127.5 177.619 126.381 176.5 125 176.5H43.5Z" stroke="white" stroke-width="3" stroke-linecap="round"/>
<path d="M135.5 198.5L82 232.5M169 237L163.5 250.5M157.5 210.5L146 223.5M141.5 106L96 65.5M168 70L161.5 55M160 97L144.5 75.5" stroke="#EAEAEE" stroke-width="2" stroke-linecap="round"/>
<path d="M164 55.5L167.5 63.5M158 90.5L154.5 85.5M147 75L150.5 80M156.5 96L147.5 83.5M98.5 65L112 77M123.5 87.5L127 90.5M130 93L134.5 97" stroke="#EAEAEE" stroke-linecap="round"/>
<path d="M84 233.5L118.5 211.5M134 197L128.5 200.5M159 212L154.5 217M152 220L148.5 224" stroke="#EAEAEE" stroke-linecap="round"/>
<path d="M162 248.5L165.5 240" stroke="#EAEAEE" stroke-linecap="round"/>
</svg>
