<svg width="16" height="16" viewBox="0 0 16 16" fill="none" xmlns="http://www.w3.org/2000/svg">
<g clip-path="url(#clip0_68_11)">
<path d="M3 9.53674e-07C1.34314 9.53674e-07 0 1.34315 0 3V11L2 9.0625L2 3C2 2.44772 2.44772 2 3 2L9.47174 2L11.4717 0L3 9.53674e-07Z" fill="#D9D9D9"/>
<path d="M14 13C14 13.5523 13.5523 14 13 14L6.95703 14L4.95703 16H13C14.6569 16 16 14.6569 16 13V4.52271L14 6.52271V13Z" fill="#D9D9D9"/>
<g filter="url(#filter0_d_68_11)">
<path d="M11.8372 9.10536C11.2175 9.66163 10.3983 10 9.5 10C7.567 10 6 8.43302 6 6.50003C6 5.62236 6.32304 4.82015 6.85672 4.20581L2 9.06253V13C2 13.5523 2.44772 14 3 14H6.95703L11.8372 9.10536Z" fill="#00417D"/>
</g>
<g filter="url(#filter1_d_68_11)">
<circle cx="9.5" cy="6.5" r="3.5" fill="#0A84FF"/>
<circle cx="9.5" cy="6.5" r="3" stroke="#0A84FF"/>
</g>
</g>
<defs>
<filter id="filter0_d_68_11" x="2" y="4.20581" width="10.8372" height="10.7942" filterUnits="userSpaceOnUse" color-interpolation-filters="sRGB">
<feFlood flood-opacity="0" result="BackgroundImageFix"/>
<feColorMatrix in="SourceAlpha" type="matrix" values="0 0 0 0 0 0 0 0 0 0 0 0 0 0 0 0 0 0 127 0" result="hardAlpha"/>
<feOffset dx="1" dy="1"/>
<feComposite in2="hardAlpha" operator="out"/>
<feColorMatrix type="matrix" values="0 0 0 0 0 0 0 0 0 0 0 0 0 0 0 0 0 0 0.25 0"/>
<feBlend mode="normal" in2="BackgroundImageFix" result="effect1_dropShadow_68_11"/>
<feBlend mode="normal" in="SourceGraphic" in2="effect1_dropShadow_68_11" result="shape"/>
</filter>
<filter id="filter1_d_68_11" x="6" y="3" width="8" height="8" filterUnits="userSpaceOnUse" color-interpolation-filters="sRGB">
<feFlood flood-opacity="0" result="BackgroundImageFix"/>
<feColorMatrix in="SourceAlpha" type="matrix" values="0 0 0 0 0 0 0 0 0 0 0 0 0 0 0 0 0 0 127 0" result="hardAlpha"/>
<feOffset dx="1" dy="1"/>
<feComposite in2="hardAlpha" operator="out"/>
<feColorMatrix type="matrix" values="0 0 0 0 0 0 0 0 0 0 0 0 0 0 0 0 0 0 0.25 0"/>
<feBlend mode="normal" in2="BackgroundImageFix" result="effect1_dropShadow_68_11"/>
<feBlend mode="normal" in="SourceGraphic" in2="effect1_dropShadow_68_11" result="shape"/>
</filter>
<clipPath id="clip0_68_11">
<rect width="16" height="16" fill="white"/>
</clipPath>
</defs>
</svg>
