<svg width="387" height="104" viewBox="0 0 387 104" fill="none" xmlns="http://www.w3.org/2000/svg">
<g filter="url(#filter0_d_194_95)">
<g clip-path="url(#clip0_194_95)">
<rect x="4" width="379" height="96" rx="24" fill="#0A84FF"/>
<path d="M4 0H100V96H4V0Z" fill="#0C0C0D"/>
<path fill-rule="evenodd" clip-rule="evenodd" d="M25.0625 96L100 21.023V0H79.0158L4 75.0158C4 86.6051 13.4733 96 25.0625 96Z" fill="#171719"/>
<g filter="url(#filter1_d_194_95)">
<path d="M30.75 14C23.7084 14 18 19.7084 18 26.75V60.75L26.5 52.5156L26.5 26.75C26.5 24.4028 28.4028 22.5 30.75 22.5L56.5 22.5L65 14H30.75Z" fill="white"/>
</g>
<g filter="url(#filter2_d_194_95)">
<path d="M68.308 52.6979C65.6744 55.062 62.1927 56.5002 58.375 56.5002C50.1598 56.5002 43.5 49.8404 43.5 41.6252C43.5 37.8951 44.8729 34.4857 47.141 31.8748L26.5 52.5158V69.2502C26.5 71.5974 28.4028 73.5002 30.75 73.5002H47.5674L68.308 52.6979Z" fill="#00417D"/>
</g>
<g filter="url(#filter3_d_194_95)">
<circle cx="58.375" cy="41.625" r="14.875" fill="#0A84FF"/>
<circle cx="58.375" cy="41.625" r="14.375" stroke="#0A84FF"/>
</g>
<g filter="url(#filter4_d_194_95)">
<path d="M77.5 69.25C77.5 71.5972 75.5972 73.5 73.25 73.5L47.5674 73.5L39.0674 82H73.25C80.2916 82 86 76.2916 86 69.25L86 35L77.5 43.5L77.5 69.25Z" fill="white"/>
</g>
<g style="mix-blend-mode:overlay">
<path d="M28 2H359C371.15 2 381 11.8497 381 24V72C381 84.1503 371.15 94 359 94H28C15.8497 94 6 84.1503 6 72V24C6 11.8497 15.8497 2 28 2Z" stroke="white" stroke-width="4"/>
</g>
<g filter="url(#filter5_d_194_95)">
<path d="M132.2 43H116.44L115.92 40.28L125.6 28.84H120.2L119.4 31.6L115.68 31.28L116.32 24.96H132.16L132.56 27.68L122.6 39.12H128.4L129.24 36.28L133.32 36.68L132.2 43ZM223.2 36.28C223.013 37.9333 222.293 39.5333 221.04 41.08C219.813 42.6267 217.747 43.4 214.84 43.4C212.227 43.4 210.067 42.64 208.36 41.12C206.68 39.6 205.84 37.32 205.84 34.28C205.84 31.08 206.76 28.6667 208.6 27.04C210.44 25.4133 212.667 24.6 215.28 24.6C216.267 24.6 217.32 24.7333 218.44 25C219.587 25.24 220.707 25.6533 221.8 26.24L222.6 31.72L218.48 32.16L217.88 29.2C216.84 28.8533 215.933 28.68 215.16 28.68C214.067 28.68 213.133 29.1067 212.36 29.96C211.587 30.7867 211.2 32.1467 211.2 34.04C211.2 37.56 212.573 39.32 215.32 39.32C217.347 39.32 218.533 38.04 218.88 35.48L223.2 36.28ZM243.948 34C243.948 36.8533 243.015 39.1333 241.148 40.84C239.281 42.5467 236.908 43.4 234.028 43.4C231.255 43.4 228.988 42.6 227.228 41C225.495 39.3733 224.628 37.1067 224.628 34.2C224.628 31.56 225.428 29.2933 227.028 27.4C228.628 25.5067 231.055 24.56 234.308 24.56C237.561 24.56 239.975 25.5067 241.548 27.4C243.148 29.2667 243.948 31.4667 243.948 34ZM238.628 33.84C238.628 32 238.201 30.6533 237.348 29.8C236.495 28.9467 235.455 28.52 234.228 28.52C232.895 28.52 231.841 29 231.068 29.96C230.321 30.8933 229.948 32.2133 229.948 33.92C229.948 35.4667 230.295 36.7733 230.988 37.84C231.708 38.9067 232.775 39.44 234.188 39.44C235.521 39.44 236.588 38.9467 237.388 37.96C238.215 36.9467 238.628 35.5733 238.628 33.84ZM264.886 34C264.886 36.8533 263.952 39.1333 262.086 40.84C260.219 42.5467 257.846 43.4 254.966 43.4C252.192 43.4 249.926 42.6 248.166 41C246.432 39.3733 245.566 37.1067 245.566 34.2C245.566 31.56 246.366 29.2933 247.966 27.4C249.566 25.5067 251.992 24.56 255.246 24.56C258.499 24.56 260.912 25.5067 262.486 27.4C264.086 29.2667 264.886 31.4667 264.886 34ZM259.566 33.84C259.566 32 259.139 30.6533 258.286 29.8C257.432 28.9467 256.392 28.52 255.166 28.52C253.832 28.52 252.779 29 252.006 29.96C251.259 30.8933 250.886 32.2133 250.886 33.92C250.886 35.4667 251.232 36.7733 251.926 37.84C252.646 38.9067 253.712 39.44 255.126 39.44C256.459 39.44 257.526 38.9467 258.326 37.96C259.152 36.9467 259.566 35.5733 259.566 33.84ZM276.383 43H266.423V39.12H268.823V19.4H266.223V15.48H273.983V39.12H276.383V43ZM136.96 65.56C136.96 68.2267 136.253 70.5333 134.84 72.48C133.453 74.4267 131.4 75.4 128.68 75.4C126.147 75.4 124.307 74.5067 123.16 72.72V79.52H126.36V83.52H115.6V79.52H118V60.84H115.4V56.96H123.16V60.4C123.64 59.36 124.36 58.4667 125.32 57.72C126.28 56.9733 127.587 56.6 129.24 56.6C131.533 56.6 133.387 57.3867 134.8 58.96C136.24 60.5333 136.96 62.7333 136.96 65.56ZM131.6 66.08C131.6 64.32 131.2 62.9867 130.4 62.08C129.627 61.1467 128.627 60.68 127.4 60.68C126.067 60.68 125.04 61.1733 124.32 62.16C123.627 63.1467 123.253 64.4 123.2 65.92L123.16 66.56C123.16 68.0267 123.547 69.1867 124.32 70.04C125.093 70.8933 126.12 71.32 127.4 71.32C128.627 71.32 129.627 70.8933 130.4 70.04C131.2 69.1867 131.6 67.8667 131.6 66.08ZM160.572 75H150.612V71.12H153.012V64.84C153.012 63.2933 152.732 62.1867 152.172 61.52C151.638 60.8533 150.865 60.52 149.852 60.52C148.678 60.52 147.758 60.88 147.092 61.6C146.452 62.32 146.105 63.2667 146.052 64.44V71.12H148.452V75H138.492V71.12H140.892V51.4H138.492V47.48H146.052V59.72C147.252 57.64 149.185 56.6 151.852 56.6C153.558 56.6 155.038 57.1067 156.292 58.12C157.545 59.1333 158.172 60.7067 158.172 62.84V71.12H160.572V75ZM181.214 66C181.214 68.8533 180.28 71.1333 178.414 72.84C176.547 74.5467 174.174 75.4 171.294 75.4C168.52 75.4 166.254 74.6 164.494 73C162.76 71.3733 161.894 69.1067 161.894 66.2C161.894 63.56 162.694 61.2933 164.294 59.4C165.894 57.5067 168.32 56.56 171.574 56.56C174.827 56.56 177.24 57.5067 178.814 59.4C180.414 61.2667 181.214 63.4667 181.214 66ZM175.894 65.84C175.894 64 175.467 62.6533 174.614 61.8C173.76 60.9467 172.72 60.52 171.494 60.52C170.16 60.52 169.107 61 168.334 61.96C167.587 62.8933 167.214 64.2133 167.214 65.92C167.214 67.4667 167.56 68.7733 168.254 69.84C168.974 70.9067 170.04 71.44 171.454 71.44C172.787 71.44 173.854 70.9467 174.654 69.96C175.48 68.9467 175.894 67.5733 175.894 65.84ZM198.271 69.4C198.005 71.48 197.285 73 196.111 73.96C194.938 74.92 193.418 75.4 191.551 75.4C189.551 75.4 187.925 74.9067 186.671 73.92C185.445 72.9067 184.831 71.4667 184.831 69.6V60.64H182.271V56.96H184.831V51.48H189.991V56.96H196.471V60.64H189.991V68.72C189.991 70.2933 190.711 71.08 192.151 71.08C192.471 71.08 192.898 70.9467 193.431 70.68C193.991 70.3867 194.351 69.5733 194.511 68.24L198.271 69.4ZM218.089 66C218.089 68.8533 217.155 71.1333 215.289 72.84C213.422 74.5467 211.049 75.4 208.169 75.4C205.395 75.4 203.129 74.6 201.369 73C199.635 71.3733 198.769 69.1067 198.769 66.2C198.769 63.56 199.569 61.2933 201.169 59.4C202.769 57.5067 205.195 56.56 208.449 56.56C211.702 56.56 214.115 57.5067 215.689 59.4C217.289 61.2667 218.089 63.4667 218.089 66ZM212.769 65.84C212.769 64 212.342 62.6533 211.489 61.8C210.635 60.9467 209.595 60.52 208.369 60.52C207.035 60.52 205.982 61 205.209 61.96C204.462 62.8933 204.089 64.2133 204.089 65.92C204.089 67.4667 204.435 68.7733 205.129 69.84C205.849 70.9067 206.915 71.44 208.329 71.44C209.662 71.44 210.729 70.9467 211.529 69.96C212.355 68.9467 212.769 67.5733 212.769 65.84ZM242.146 75H232.186V71.12H234.586V64.84C234.586 63.2933 234.32 62.1867 233.786 61.52C233.28 60.8533 232.52 60.52 231.506 60.52C230.28 60.52 229.333 60.9067 228.666 61.68C228 62.4267 227.653 63.4133 227.626 64.64V71.12H230.026V75H220.066V71.12H222.466V60.88H219.866V56.96H227.626V59.72C228.826 57.64 230.76 56.6 233.426 56.6C235.133 56.6 236.613 57.1067 237.866 58.12C239.12 59.1333 239.746 60.7067 239.746 62.84V71.12H242.146V75ZM266.318 69.4C266.051 71.48 265.331 73 264.158 73.96C262.985 74.92 261.465 75.4 259.598 75.4C257.598 75.4 255.971 74.9067 254.718 73.92C253.491 72.9067 252.878 71.4667 252.878 69.6V60.64H250.318V56.96H252.878V51.48H258.038V56.96H264.518V60.64H258.038V68.72C258.038 70.2933 258.758 71.08 260.198 71.08C260.518 71.08 260.945 70.9467 261.478 70.68C262.038 70.3867 262.398 69.5733 262.558 68.24L266.318 69.4ZM288.736 75H278.776V71.12H281.176V64.84C281.176 63.2933 280.896 62.1867 280.336 61.52C279.802 60.8533 279.029 60.52 278.016 60.52C276.842 60.52 275.922 60.88 275.256 61.6C274.616 62.32 274.269 63.2667 274.216 64.44V71.12H276.616V75H266.656V71.12H269.056V51.4H266.656V47.48H274.216V59.72C275.416 57.64 277.349 56.6 280.016 56.6C281.722 56.6 283.202 57.1067 284.456 58.12C285.709 59.1333 286.336 60.7067 286.336 62.84V71.12H288.736V75ZM307.778 69.32C307.644 70.92 306.858 72.3333 305.418 73.56C303.978 74.7867 301.964 75.4 299.378 75.4C296.684 75.4 294.458 74.64 292.698 73.12C290.964 71.6 290.098 69.3333 290.098 66.32C290.098 63.5467 290.884 61.24 292.458 59.4C294.058 57.5333 296.284 56.6 299.138 56.6C301.644 56.6 303.671 57.32 305.218 58.76C306.791 60.2 307.591 62.0933 307.618 64.44C307.618 65.32 307.524 66.1867 307.338 67.04H295.498C295.791 69.8933 297.204 71.32 299.738 71.32C301.124 71.32 302.058 70.9867 302.538 70.32C303.044 69.6533 303.351 69.0533 303.458 68.52L307.778 69.32ZM302.298 64.04C302.404 63.1333 302.204 62.28 301.698 61.48C301.218 60.68 300.364 60.28 299.138 60.28C298.071 60.28 297.244 60.6267 296.658 61.32C296.071 62.0133 295.698 62.92 295.538 64.04H302.298ZM343.154 75H335.594V64.84C335.594 63.2933 335.327 62.1867 334.794 61.52C334.287 60.8533 333.527 60.52 332.514 60.52C331.287 60.52 330.394 60.92 329.834 61.72C329.3 62.52 329.034 63.5467 329.034 64.8V71.12H331.434V75H323.874V64.84C323.874 63.2933 323.607 62.1867 323.074 61.52C322.567 60.8533 321.807 60.52 320.794 60.52C319.54 60.52 318.647 60.92 318.114 61.72C317.58 62.52 317.314 63.5467 317.314 64.8V71.12H320.754V75H309.754V71.12H312.154V60.88H309.794V56.96H317.314V59.68C318.46 57.6267 320.287 56.6 322.794 56.6C324.1 56.6 325.3 56.92 326.394 57.56C327.487 58.2 328.247 59.1733 328.674 60.48C329.74 57.8933 331.7 56.6 334.554 56.6C336.18 56.6 337.62 57.1067 338.874 58.12C340.127 59.1333 340.754 60.7067 340.754 62.84V71.12H343.154V75ZM362.153 69.32C362.019 70.92 361.233 72.3333 359.793 73.56C358.353 74.7867 356.339 75.4 353.753 75.4C351.059 75.4 348.833 74.64 347.073 73.12C345.339 71.6 344.473 69.3333 344.473 66.32C344.473 63.5467 345.259 61.24 346.833 59.4C348.433 57.5333 350.659 56.6 353.513 56.6C356.019 56.6 358.046 57.32 359.593 58.76C361.166 60.2 361.966 62.0933 361.993 64.44C361.993 65.32 361.899 66.1867 361.713 67.04H349.873C350.166 69.8933 351.579 71.32 354.113 71.32C355.499 71.32 356.433 70.9867 356.913 70.32C357.419 69.6533 357.726 69.0533 357.833 68.52L362.153 69.32ZM356.673 64.04C356.779 63.1333 356.579 62.28 356.073 61.48C355.593 60.68 354.739 60.28 353.513 60.28C352.446 60.28 351.619 60.6267 351.033 61.32C350.446 62.0133 350.073 62.92 349.913 64.04H356.673Z" fill="white"/>
<path d="M137.463 26.64C138.209 26.0267 139.103 25.5867 140.143 25.32C141.209 25.0267 142.276 24.88 143.343 24.88C147.449 24.88 149.503 26.8667 149.503 30.84V39.48C149.503 40.84 150.023 41.52 151.063 41.52C151.596 41.52 152.036 41.4267 152.383 41.24L152.423 42.84C151.836 43.2133 151.143 43.4 150.343 43.4C148.316 43.4 147.303 42.2 147.303 39.8V39.72C146.743 40.68 145.929 41.5333 144.863 42.28C143.823 43.0267 142.596 43.4 141.183 43.4C140.009 43.4 138.809 43.0533 137.583 42.36C136.383 41.64 135.783 40.3333 135.783 38.44C135.783 36.2 136.676 34.7333 138.463 34.04C140.249 33.32 142.129 32.96 144.103 32.96C144.663 32.96 145.209 32.9867 145.743 33.04C146.303 33.0667 146.823 33.0933 147.303 33.12V31.24C147.303 29.88 146.983 28.8133 146.343 28.04C145.729 27.24 144.609 26.84 142.983 26.84C141.649 26.84 140.449 27.1067 139.383 27.64L138.663 30.84L136.823 30.6L137.463 26.64ZM147.303 36.48V34.84C146.796 34.7867 146.249 34.7467 145.663 34.72C145.076 34.6667 144.463 34.64 143.823 34.64C142.383 34.64 141.063 34.8667 139.863 35.32C138.689 35.7467 138.103 36.7067 138.103 38.2C138.103 39.48 138.516 40.3467 139.342 40.8C140.169 41.2267 140.969 41.44 141.743 41.44C143.076 41.44 144.316 40.9867 145.463 40.08C146.609 39.1467 147.223 37.9467 147.303 36.48ZM173.205 33.6C173.205 35.1467 172.938 36.68 172.405 38.2C171.872 39.6933 171.018 40.9333 169.845 41.92C168.672 42.9067 167.098 43.4 165.125 43.4C163.898 43.4 162.752 43.1467 161.685 42.64C160.618 42.1067 159.778 41.3333 159.165 40.32V49.68H163.525V51.52H153.645V49.68H156.965V27.12H153.605V25.24H159.165V29.04C159.725 27.9467 160.512 26.9867 161.525 26.16C162.538 25.3067 163.872 24.88 165.525 24.88C167.818 24.88 169.672 25.6533 171.085 27.2C172.498 28.72 173.205 30.8533 173.205 33.6ZM170.885 33.8C170.885 31.5333 170.338 29.8133 169.245 28.64C168.152 27.44 166.778 26.84 165.125 26.84C163.472 26.84 162.072 27.52 160.925 28.88C159.805 30.24 159.218 31.5733 159.165 32.88V36.04C159.165 37.5333 159.712 38.8133 160.805 39.88C161.898 40.92 163.218 41.44 164.765 41.44C166.978 41.44 168.552 40.6533 169.485 39.08C170.418 37.48 170.885 35.72 170.885 33.8ZM175.476 24.04L177.516 15.56H179.676L177.636 24.04H175.476ZM195.833 37.96C195.833 39.6133 195.127 40.9333 193.713 41.92C192.327 42.9067 190.607 43.4 188.553 43.4C187.3 43.4 186.06 43.2267 184.833 42.88C183.633 42.5067 182.713 42.0933 182.073 41.64L182.553 37.88L184.353 38.04L184.193 40.44C185.447 41.1067 186.873 41.44 188.473 41.44C189.78 41.44 190.953 41.1867 191.993 40.68C193.06 40.1467 193.593 39.32 193.593 38.2C193.593 37.1333 193.207 36.3733 192.433 35.92C191.687 35.4667 190.753 35.1467 189.633 34.96C188.513 34.7467 187.393 34.52 186.273 34.28C185.18 34.04 184.247 33.6 183.473 32.96C182.727 32.32 182.353 31.32 182.353 29.96C182.353 28.1467 183.007 26.8533 184.313 26.08C185.62 25.28 187.047 24.88 188.593 24.88C189.82 24.88 190.967 25.0533 192.033 25.4C193.127 25.7467 194.007 26.12 194.673 26.52L195.073 30.6L193.233 30.84L192.753 27.84C192.193 27.5467 191.607 27.3067 190.993 27.12C190.38 26.9333 189.673 26.84 188.873 26.84C187.62 26.84 186.607 27.0667 185.833 27.52C185.06 27.9733 184.673 28.7067 184.673 29.72C184.673 30.7333 185.047 31.4533 185.793 31.88C186.54 32.28 187.473 32.5733 188.593 32.76C189.713 32.9467 190.82 33.1733 191.913 33.44C193.033 33.7067 193.967 34.1733 194.713 34.84C195.46 35.5067 195.833 36.5467 195.833 37.96Z" fill="white" fill-opacity="0.25"/>
<path d="M134.062 33H197.539V35H134.062V33Z" fill="white" fill-opacity="0.25"/>
</g>
</g>
</g>
<defs>
<filter id="filter0_d_194_95" x="0" y="0" width="387" height="104" filterUnits="userSpaceOnUse" color-interpolation-filters="sRGB">
<feFlood flood-opacity="0" result="BackgroundImageFix"/>
<feColorMatrix in="SourceAlpha" type="matrix" values="0 0 0 0 0 0 0 0 0 0 0 0 0 0 0 0 0 0 127 0" result="hardAlpha"/>
<feOffset dy="4"/>
<feGaussianBlur stdDeviation="2"/>
<feComposite in2="hardAlpha" operator="out"/>
<feColorMatrix type="matrix" values="0 0 0 0 0 0 0 0 0 0 0 0 0 0 0 0 0 0 0.25 0"/>
<feBlend mode="normal" in2="BackgroundImageFix" result="effect1_dropShadow_194_95"/>
<feBlend mode="normal" in="SourceGraphic" in2="effect1_dropShadow_194_95" result="shape"/>
</filter>
<filter id="filter1_d_194_95" x="18" y="14" width="49" height="48.75" filterUnits="userSpaceOnUse" color-interpolation-filters="sRGB">
<feFlood flood-opacity="0" result="BackgroundImageFix"/>
<feColorMatrix in="SourceAlpha" type="matrix" values="0 0 0 0 0 0 0 0 0 0 0 0 0 0 0 0 0 0 127 0" result="hardAlpha"/>
<feOffset dx="2" dy="2"/>
<feComposite in2="hardAlpha" operator="out"/>
<feColorMatrix type="matrix" values="0 0 0 0 0 0 0 0 0 0 0 0 0 0 0 0 0 0 0.25 0"/>
<feBlend mode="normal" in2="BackgroundImageFix" result="effect1_dropShadow_194_95"/>
<feBlend mode="normal" in="SourceGraphic" in2="effect1_dropShadow_194_95" result="shape"/>
</filter>
<filter id="filter2_d_194_95" x="26.5" y="31.8748" width="43.8081" height="43.6254" filterUnits="userSpaceOnUse" color-interpolation-filters="sRGB">
<feFlood flood-opacity="0" result="BackgroundImageFix"/>
<feColorMatrix in="SourceAlpha" type="matrix" values="0 0 0 0 0 0 0 0 0 0 0 0 0 0 0 0 0 0 127 0" result="hardAlpha"/>
<feOffset dx="2" dy="2"/>
<feComposite in2="hardAlpha" operator="out"/>
<feColorMatrix type="matrix" values="0 0 0 0 0 0 0 0 0 0 0 0 0 0 0 0 0 0 0.25 0"/>
<feBlend mode="normal" in2="BackgroundImageFix" result="effect1_dropShadow_194_95"/>
<feBlend mode="normal" in="SourceGraphic" in2="effect1_dropShadow_194_95" result="shape"/>
</filter>
<filter id="filter3_d_194_95" x="43.5" y="26.75" width="31.75" height="31.75" filterUnits="userSpaceOnUse" color-interpolation-filters="sRGB">
<feFlood flood-opacity="0" result="BackgroundImageFix"/>
<feColorMatrix in="SourceAlpha" type="matrix" values="0 0 0 0 0 0 0 0 0 0 0 0 0 0 0 0 0 0 127 0" result="hardAlpha"/>
<feOffset dx="2" dy="2"/>
<feComposite in2="hardAlpha" operator="out"/>
<feColorMatrix type="matrix" values="0 0 0 0 0 0 0 0 0 0 0 0 0 0 0 0 0 0 0.25 0"/>
<feBlend mode="normal" in2="BackgroundImageFix" result="effect1_dropShadow_194_95"/>
<feBlend mode="normal" in="SourceGraphic" in2="effect1_dropShadow_194_95" result="shape"/>
</filter>
<filter id="filter4_d_194_95" x="39.0674" y="35" width="48.9326" height="49" filterUnits="userSpaceOnUse" color-interpolation-filters="sRGB">
<feFlood flood-opacity="0" result="BackgroundImageFix"/>
<feColorMatrix in="SourceAlpha" type="matrix" values="0 0 0 0 0 0 0 0 0 0 0 0 0 0 0 0 0 0 127 0" result="hardAlpha"/>
<feOffset dx="2" dy="2"/>
<feComposite in2="hardAlpha" operator="out"/>
<feColorMatrix type="matrix" values="0 0 0 0 0 0 0 0 0 0 0 0 0 0 0 0 0 0 0.25 0"/>
<feBlend mode="normal" in2="BackgroundImageFix" result="effect1_dropShadow_194_95"/>
<feBlend mode="normal" in="SourceGraphic" in2="effect1_dropShadow_194_95" result="shape"/>
</filter>
<filter id="filter5_d_194_95" x="109.4" y="11.48" width="258.753" height="80.04" filterUnits="userSpaceOnUse" color-interpolation-filters="sRGB">
<feFlood flood-opacity="0" result="BackgroundImageFix"/>
<feColorMatrix in="SourceAlpha" type="matrix" values="0 0 0 0 0 0 0 0 0 0 0 0 0 0 0 0 0 0 127 0" result="hardAlpha"/>
<feOffset dy="2"/>
<feGaussianBlur stdDeviation="3"/>
<feComposite in2="hardAlpha" operator="out"/>
<feColorMatrix type="matrix" values="0 0 0 0 0 0 0 0 0 0 0 0 0 0 0 0 0 0 0.25 0"/>
<feBlend mode="normal" in2="BackgroundImageFix" result="effect1_dropShadow_194_95"/>
<feBlend mode="normal" in="SourceGraphic" in2="effect1_dropShadow_194_95" result="shape"/>
</filter>
<clipPath id="clip0_194_95">
<rect x="4" width="379" height="96" rx="24" fill="white"/>
</clipPath>
</defs>
</svg>
